<svg xmlns="http://www.w3.org/2000/svg" width="1036" height="324" viewBox="0 0 1036 324"><path fill-rule="evenodd" d="M132.413 9.595c.381 2.148.914 4.658 1.183 5.578.692 2.364 9.543 7.813 13.818 8.507 3.449.559 3.586.467 3.586-2.427 0-3.907-2.31-9.293-4.928-11.493-1.14-.957-2.072-1.465-2.072-1.128s-.608.108-1.351-.508c-.743-.617-3.506-1.417-6.14-1.778l-4.79-.656zm28.204.857c-5.204 5.054-6.01 11.012-2.029 14.993 1.447 1.447 1.905 1.406 5.249-.475 4.158-2.338 6.163-5.831 6.163-10.735 0-7.748-3.745-9.258-9.383-3.783M475.25 17.82c-3.34.474-2.736 2.571 1.606 5.58 6.976 4.834 6.614.792 6.933 77.349.204 49.023-.04 70.471-.837 73.43-.981 3.641-5.952 9.876-7.808 9.792-1.631-.074-13.474-16.863-40.544-57.471-16.131-24.2-29.889-45.073-30.572-46.384-1.187-2.279-.297-3.331 20.115-23.776 11.746-11.766 25.295-24.629 30.107-28.586 4.813-3.956 8.75-7.769 8.75-8.474 0-.993-4.039-1.28-18-1.28-11.035 0-18 .378-18 .976 0 .536 1.567 2.402 3.483 4.145 2.837 2.582 3.365 3.651 2.848 5.774-.929 3.811-2.74 5.794-34.534 37.807l-29.001 29.202.38-32.202c.414-35.049.353-34.664 6.433-40.401 1.865-1.759 3.391-3.672 3.391-4.25 0-1.338-49.624-1.468-50.45-.132-.604.977 2.013 4.081 3.44 4.081.466 0 1.865 1.647 3.108 3.659l2.262 3.659-.218 70.091c-.12 38.55-.484 71.592-.808 73.426-.364 2.062-2.072 4.761-4.475 7.07-2.138 2.054-3.58 4.04-3.206 4.415 1.021 1.021 50.143.819 50.778-.209.302-.489-1.022-2.087-2.942-3.551-6.897-5.262-6.953-5.564-7.314-40.207l-.324-31.148 4.72-3.604c3.59-2.74 5.037-3.341 6.043-2.506.728.603 5.463 7.242 10.524 14.751C424.034 167.661 429 175.355 429 177.502c0 1.339-1.113 3.229-2.584 4.385-1.421 1.118-2.299 2.493-1.951 3.057.565.914 44.873 1.309 126.035 1.123 9.9-.023 23.524-.047 30.275-.054 11.996-.013 12.295-.067 13.178-2.389 1.564-4.114 4.437-45.634 3.24-46.831-1.994-1.994-4.014.078-5.688 5.839-3.943 13.562-11.016 23.336-20.824 28.775-8.991 4.986-12.447 5.589-32.751 5.711-17.803.108-18.378.047-20.128-2.114-1.698-2.098-1.802-6.339-1.802-73.77V29.689l2.499-3.277c1.375-1.802 3.4-3.563 4.5-3.912S525 21.011 525 19.967c0-1.802-1.192-1.912-23.75-2.182-13.062-.157-24.762-.141-26 .035m256.501-.013c-3.017.586-2.661 2.997.792 5.358 1.879 1.284 3.988 3.685 4.686 5.335.988 2.331 1.271 18.826 1.271 74 0 66.05-.123 71.226-1.771 74.241-.974 1.782-2.886 3.971-4.25 4.865-1.363.893-2.479 2.247-2.479 3.009 0 1.348 2.972 1.539 24 1.539 22.981 0 27-.214 27-1.438 0-.707-1.399-2.111-3.11-3.122-6.39-3.775-6.717-5.946-7.05-46.781-.164-20.178-.016-36.971.33-37.316 1.327-1.327 9.186 1.769 11.825 4.659 2.487 2.723 7.392 10.722 27.807 45.344 9.77 16.569 20.916 33.133 23.849 35.44 8.515 6.698 26.546 4.417 37.099-4.695 1.788-1.543 3.25-3.315 3.25-3.937 0-.623-1.865-1.447-4.144-1.832-5.717-.966-11.301-6.385-19.393-18.82-3.635-5.586-11.639-17.77-17.786-27.076s-11.84-17.943-12.65-19.193-1.23-2.517-.933-2.815c.298-.297 4.111-1.276 8.474-2.176 10.4-2.143 15.657-4.708 21.3-10.394 10.727-10.809 14.341-27.07 9.444-42.502-2.53-7.975-4.942-12.032-10.557-17.763-6.176-6.305-16.437-11.07-27.359-12.707-6.112-.917-85.636-2.001-89.645-1.223M937 17.632c-14.449 2.779-29.644 9.596-39.136 17.557-11.184 9.38-20.956 25.909-25.015 42.311-1.799 7.269-2.239 11.981-2.288 24.5-.075 19.182 1.946 28.194 10.071 44.901 4.958 10.195 6.514 12.372 14.706 20.578 7.607 7.619 10.605 9.864 17.662 13.223 13.103 6.239 20.862 7.804 38.5 7.765 12.489-.027 16.313-.409 22.841-2.279 27.482-7.874 46.035-29.36 52.835-61.188 2.653-12.418 2.124-35.125-1.107-47.5-7.067-27.062-26.496-48.569-51.569-57.085-6.88-2.337-9.89-2.756-21.5-2.99-7.425-.151-14.625-.057-16 .207m-334.363 1.065c-.384.383 1.138 2.296 3.381 4.25 3.65 3.18 4.182 4.236 5.07 10.06.606 3.969.88 32.66.702 73.545-.276 63.885-.379 67.177-2.19 69.993-1.045 1.625-3.263 4.116-4.928 5.536s-2.584 2.855-2.041 3.191c.836.517 85.013 1.165 108.497.835l7.628-.107 1.166-7.75c.642-4.262 2.004-15.175 3.027-24.25 1.545-13.718 1.635-16.734.532-17.887-2.258-2.361-3.921-.625-6.246 6.515-2.795 8.589-7.776 17.389-12.729 22.493-4.365 4.497-13.599 9.167-21.305 10.774-5.94 1.239-35.046 1.491-36.888.319-2.903-1.845-3.313-7.025-3.313-41.82V98.918l15.07.136c16.76.151 24.374 1.663 28.34 5.629 2.62 2.62 5.59 8.25 5.59 10.596 0 2.058 2.671 4.061 4.487 3.364 1.284-.492 1.513-3.755 1.513-21.553 0-13.489-.372-21.202-1.044-21.617-1.679-1.038-3.859 1.454-5.01 5.727-1.765 6.557-5.416 7.552-29.196 7.961L643 89.5V59.872c0-26.251.187-29.782 1.642-30.989 2.237-1.858 27.945-2.504 37.065-.933 16.736 2.884 24.289 10.068 30.562 29.071 3.107 9.41 3.703 10.479 5.845 10.479 3.397 0 3.456-2.598.52-22.781-1.378-9.47-2.787-19.356-3.131-21.969l-.626-4.75h-55.772c-30.674 0-56.085.314-56.468.697m-413.602 2.237c-2.197 4.106-.342 9.143 6.471 17.566 1.599 1.976 1.635 1.977 3.056.059 3.229-4.359.374-15.507-4.636-18.097-3.582-1.853-3.65-1.846-4.891.472m-80.66 2.05c-2.458.994-2.915 5.323-.75 7.12.756.627 1.375 1.721 1.375 2.43 0 1.679 5.524 6.308 8.386 7.027 7.678 1.927 8.642 1.166 7.365-5.814-1.09-5.955-5.186-10.747-9.185-10.747-1.321 0-3.002-.197-3.734-.437-.733-.241-2.288-.051-3.457.421m24.6 4.835c-3.042 2.463-1.987 5.246 3.306 8.723a655 655 0 0 1 6.929 4.614c3.258 2.217 3.538 2.239 5.361.415 3.716-3.716.65-11.068-5.571-13.358-5.789-2.131-7.783-2.209-10.025-.394m807.388-.781c-6.792 1.345-15.855 6.506-19.731 11.236-12.375 15.101-19.009 49.809-15.582 81.515 2.955 27.346 12.894 47.105 27.648 54.969 11.576 6.17 24.743 6.485 36.635.875 16.995-8.017 25.617-30.421 25.641-66.633.033-49.666-13.168-77.106-39.408-81.913-6.665-1.221-9.24-1.229-15.203-.049m-770.107.937c-1.784.423-3.983 1.383-4.886 2.133-2.732 2.268-6.375 8.707-6.291 11.122.043 1.249.306 1.708.583 1.02.76-1.884 2.158-1.501 2.518.69.315 1.911.405 1.912 5.82.077 9.569-3.242 15.519-12.728 9.435-15.042-2.839-1.079-2.635-1.079-7.179 0m603.992-.312c-1.239.262-2.606 1.233-3.039 2.157-.432.924-.769 14.678-.747 30.564l.038 28.884 8 .384c4.4.211 10.7.841 14 1.401 17.411 2.953 30.306-2.995 34.176-15.764 4.118-13.585 1.199-31.482-6.438-39.477-6.42-6.721-11.576-8.236-28.738-8.444-8.25-.1-16.013.033-17.252.295M78.369 31.652c-3.869 2.008-5.301 4.332-5.337 8.664-.083 9.906 7.807 12.535 12.898 4.298 1.62-2.622 2.104-4.759 1.876-8.287-.287-4.467-.501-4.794-3.532-5.41-2.012-.408-4.234-.132-5.905.735m107.058 2.466c-.38.615-1.036 2.649-1.458 4.52-.886 3.929 1.794 10.63 4.92 12.303 1.605.858 1.961.559 2.492-2.095.981-4.908.731-8.642-.83-12.378-1.434-3.432-3.788-4.512-5.124-2.35m22.073 4.238c-3.528 1.345-6.42 4.428-6.467 6.894-.018.962-.495 1.75-1.059 1.75-.593 0-.396 1.218.467 2.887 1.898 3.67 7.631 4.734 11.803 2.191 3.677-2.242 7.756-7.919 7.756-10.797 0-3.885-6.185-5.332-12.5-2.925M95.976 44.045c-1.108 2.07-.315 4.937 1.381 4.993.629.021 2.338 1.767 3.798 3.879 2.074 3.003 3.44 3.934 6.25 4.262 4.284.5 5.595-.563 5.595-4.534 0-4.611-6.313-10.106-11.808-10.278-3.166-.099-4.494.328-5.216 1.678m96.822 1.88c-.248 1.691-.11 3.075.308 3.075 1.267 0 2.16-4.134 1.118-5.176-.633-.633-1.133.103-1.426 2.101m-63.716 1.443c-1.145 1.852-2.082 4.777-2.082 6.5 0 3.531 2.985 7.132 5.911 7.132 2.403 0 7.384-5.79 6.642-7.722-.304-.793-.553-2.018-.553-2.723 0-1.663-4.892-6.555-6.555-6.555-.705 0-2.219 1.516-3.363 3.368m96.973.899c-1.345.681-3.313 2.723-4.374 4.539l-1.928 3.302 2.373 2.531c2.016 2.15 2.955 2.439 6.229 1.918 5.427-.865 9.115-2.996 12.214-7.058 2.192-2.874 2.449-3.773 1.429-5.001-1.553-1.872-12.391-2.029-15.943-.231M176 48.84c0 .5-1.287 1.167-2.86 1.482-4.022.804-8.873 5.185-9.647 8.712-.727 3.31 1.166 8.621 3.374 9.469 1.778.682 9.559-3.845 11.587-6.741.867-1.238 1.546-4.29 1.546-6.949 0-3.719-.432-4.974-2-5.813-1.1-.589-2-.661-2-.16M66.156 51.904c-1.598.987-.578 7.972 1.498 10.267 4.038 4.461 10.94 6.228 13.286 3.401 1.365-1.645-.567-6.179-4.391-10.303-2.305-2.486-8.546-4.507-10.393-3.365m-24.408.681c-4.417 4.417 10.347 18.235 16.827 15.748.869-.334 1.425.08 1.425 1.06 0 .884.378 1.494.839 1.357.461-.138 2.028 1.155 3.48 2.871 1.684 1.99 5.598 4.342 10.796 6.488 6.575 2.714 8.342 3.902 9.118 6.129 1.251 3.59 2.445 3.505 3.266-.232.361-1.647 1.316-3.363 2.12-3.813 1.248-.698 1.183-1.178-.436-3.256-1.045-1.34-2.65-3.9-3.567-5.687-2.109-4.111-3.99-4.249-3.403-.25.479 3.261-.289 3.818-2.16 1.564-1.247-1.502-5.341-2.674-10.568-3.024-3.396-.228-8.796-4.286-8.104-6.09.628-1.637-2.727-8.62-5.199-10.818-2.185-1.944-13.003-3.477-14.434-2.047m47.002.807C83.533 57.352 90.433 71 97.652 71c4.041 0 5.652-2.452 4.425-6.733-1.414-4.928-2.936-7.099-6.834-9.748-4.267-2.899-4.178-2.884-6.493-1.127m31.094 5.275c-.245 6.051.197 8.713 1.731 10.412.784.868 1.425 2.05 1.425 2.627s.594 1.542 1.32 2.145c.726.602 1.428 3.47 1.561 6.372.132 2.902 1.76 9.869 3.618 15.481 3.261 9.851 5.442 24.995 3.419 23.745-.505-.312-.918-1.203-.918-1.98 0-2.893-4.867-12.196-10.008-19.129-4.664-6.29-5.532-7.02-7.15-6.009-2.132 1.331-2.388 3.22-.592 4.369 1.554.995 10.61 19.893 11.165 23.3.224 1.375 1.122 5.875 1.996 10 1.865 8.813 1.786 8 .782 8-.445 0-2.174-1.938-3.844-4.308-2.917-4.138-4.699-8.332-7.394-17.406-.809-2.723-3.234-6.265-6.853-10.008-3.081-3.186-8.591-9.119-12.243-13.184-4.53-5.041-7.132-7.203-8.185-6.799-1.305.5-1.096 1.416 1.349 5.931 1.59 2.936 5.287 8.024 8.215 11.306 5.311 5.953 9.289 11.468 8.271 11.468-.295 0-1.318-.395-2.273-.877-.955-.483-3.536-1.449-5.736-2.147-8.911-2.827-18.524-8.122-20.03-11.033-.819-1.585-1.373-3.317-1.23-3.847.447-1.659-8.096-11.878-11.242-13.447-2.786-1.39-2.998-1.366-2.998.344 0 1.012-.562 2.067-1.25 2.345-.802.323-.672.532.363.583.962.047 2.944 2.802 4.912 6.829 1.815 3.713 3.777 7.063 4.359 7.446.582.382.764.99.404 1.349-.791.792-6.24-.941-13.739-4.37-3.052-1.395-5.867-2.568-6.256-2.606s-1.387-.969-2.218-2.069-1.533-1.55-1.559-1c-.025.55-.465.338-.977-.471s-1.155-1.247-1.429-.972c-.621.621 7.044 8.599 11.427 11.892 1.793 1.347 5.023 3.321 7.178 4.388 5.101 2.523 6.407 4.702 7.86 13.116.661 3.824 2.037 8.324 3.059 10s1.86 4.037 1.862 5.247.791 2.659 1.754 3.22c.962.561 1.251 1.033.641 1.05-.911.025-7.259-5.005-11.947-9.466C66.06 128.236 62 121.409 62 119.669c0-5.852-7.084-14.107-12.905-15.038-2.156-.345-4.634-.901-5.508-1.236-3.044-1.168-1.491 1.131 3.105 4.596 3.196 2.409 5.356 5.129 6.97 8.778 1.286 2.909 2.338 5.684 2.338 6.168s-2.812-.017-6.25-1.113c-6.568-2.095-14.06-3.838-14.524-3.38-.818.808 1.259 3.573 3.116 4.147 3.949 1.22 25.055 12.014 27.197 13.909.622.55 2.218 1.789 3.546 2.753 7.008 5.086 6.912 4.68 1.115 4.715-2.914.018-6.603-.642-8.196-1.466-3.016-1.559-5.974-2.301-9.683-2.428-1.198-.041-2.773-.642-3.5-1.336-5.59-5.337-14.821-3.254-14.821 3.344 0 5.363 8.02 9.125 14.475 6.791 2.642-.955 3.525-1.851 3.525-3.574 0-2.835 2.967-3.14 3.689-.38.378 1.443 1.764 2.093 5.586 2.619 4.915.676 5.003.744 2.655 2.045-1.337.74-3.443 1.362-4.68 1.382s-2.25.459-2.25.978-2.74 2.259-6.09 3.867c-5.31 2.548-5.773 2.983-3.613 3.396 1.363.261 5.566-.359 9.34-1.376 6.973-1.88 23.839-2.653 29.863-1.369 1.65.351 9.3.873 17 1.159 17.923.666 20.848 1.42 23.939 6.172 7.435 11.431 6.821 31.958-1.457 48.708-4.529 9.164-9.142 14.497-16.982 19.635-5.602 3.671-8.705 4.893-29 11.418-12.7 4.084-17.81 6.6-25.978 12.793-7.834 5.941-10.357 7.398-14.952 8.635-4.059 1.093-5.581 3.019-2.386 3.019 3.243 0 13.848-3.374 17.316-5.509 7.872-4.846 28.544-13.281 29.704-12.12.441.44-7.002 3.736-8.092 3.583-.489-.069-1.164.274-1.5.762s-2.861 1.731-5.609 2.762c-2.862 1.075-7.245 4.002-10.26 6.853-4.972 4.703-14.4 17.958-16.978 23.871-1.963 4.502.723 2.421 5.693-4.409 7.992-10.986 14.576-17.304 22.053-21.161 7.29-3.76 9.843-4.594 6.641-2.169-2.774 2.103-12.639 18.707-12.646 21.287-.003 1.238.444 2.25.994 2.25s1.007-.562 1.015-1.25 2.726-4.521 6.039-8.518c6.134-7.402 12.273-12.55 19.446-16.306 2.2-1.152 6.475-3.805 9.5-5.897s5.895-3.566 6.377-3.278-.192 1.197-1.5 2.019c-4.851 3.051-20.428 22.186-19.695 24.193.506 1.383 7.707-1.533 10.642-4.31 4.483-4.24 9.901-8.653 10.625-8.653.376 0 2.159-1.125 3.962-2.5s3.996-2.5 4.874-2.5 1.875-.45 2.215-1c.778-1.258 2.5-1.309 2.5-.073 0 .509-.655 1.072-1.456 1.25-.802.178-3.164 2.758-5.25 5.735-3.354 4.785-5.145 6.118-15.45 11.5-6.411 3.348-13.736 7.587-16.276 9.419-7.551 5.444-12.996 17.134-10.776 23.135.825 2.23.941 2.108 1.537-1.623.888-5.55 7.395-14.782 12.865-18.251l4.514-2.863-1.854 3.837c-2.654 5.493-2.445 10.317.531 12.267 2.91 1.906 4.035 1.104 2.174-1.552-2.256-3.221 1.239-12.108 5.984-15.217 2.541-1.665 2.622-1.66 2.055.129-3.973 12.515-3.848 19.964.177 10.611 3.577-8.313 9.437-15.804 18.225-23.3 4.675-3.987 9.269-8.207 10.209-9.377 1.621-2.017 1.632-1.817.22 3.873-2.123 8.548-4.428 14.5-5.618 14.5-.563 0-1.887 1.098-2.943 2.441s-2.8 2.72-3.874 3.061c-3.198 1.015-8.619 14.758-7.396 18.748.856 2.792 2.258 2.033 2.938-1.591.768-4.096 7.283-12.894 9.811-13.25 1.461-.206 1.717.194 1.222 1.915-2.765 9.616-3.775 16.267-2.96 19.494 1.381 5.472 3.391 5.258 3.391-.361 0-6.574 5.977-21.046 12.888-31.207 3.087-4.537 5.95-8.25 6.362-8.25s.75 1.791.75 3.98c0 3.732-1.322 8.224-4.618 15.69-.77 1.744-1.681 4.669-2.024 6.5-.619 3.304-.609 3.314 1.286 1.33 1.051-1.1 3.001-3.575 4.335-5.5s2.671-3.725 2.973-4c.301-.275 1.56-2.525 2.797-5 1.605-3.211 2.436-7.163 2.903-13.797.696-9.894 1.389-10.543 3.212-3.01 1.718 7.096 1.39 11.229-1.431 18.077-5.028 12.202-3.968 22.329 3.203 30.586 3.912 4.506 4.797 3.941 2.314-1.476-3.678-8.022-4.428-12.666-3.045-18.846.697-3.115 1.904-5.907 2.681-6.205s1.459-1.957 1.514-3.686c.071-2.21.518-1.237 1.505 3.276 1.725 7.89 5.518 14.575 9.724 17.14 4.773 2.91 6.215 2.332 2.772-1.112-3.583-3.583-4.462-6.518-6.574-21.947a2270 2270 0 0 0-1.912-13.75c-.621-4.138 1.923-2.312 5.573 4 5.975 10.331 15.029 18.736 20.196 18.746 1.036.002 4.163 2.32 6.95 5.152 5.297 5.381 6.968 5.271 4.103-.27-1.943-3.756-4.495-6.142-9.437-8.82-3.053-1.654-14.225-12.058-12.948-12.058.262 0 2.72.829 5.462 1.843a9880 9880 0 0 0 17.986 6.605c15.936 5.838 28.256 11.473 28.932 13.234.278.725 1.226 1.318 2.108 1.318 1.457 0 1.46-.143.031-1.571-.864-.865-1.571-1.997-1.571-2.517s-1.575-1.695-3.5-2.613-3.5-2.036-3.5-2.484-.461-.815-1.024-.815-4.133-2.137-7.933-4.75c-5.062-3.481-7.64-6.086-9.647-9.75-1.506-2.75-3.224-5.351-3.817-5.78-1.586-1.147 4.501.349 7.421 1.824 1.375.694 6.011 4.733 10.302 8.974s8.036 7.477 8.323 7.19c1.362-1.362-9.136-16.605-14.155-20.553-1.384-1.088-6.824-4.075-12.09-6.637s-9.397-4.834-9.181-5.051c1.408-1.407 21.348 6.252 28.801 11.062 7.599 4.905 10.298 6.159 15.799 7.337 10.679 2.286 14.154.587 4.951-2.421-2.887-.944-7.5-3.594-10.25-5.889s-6.687-5.196-8.75-6.446-3.75-2.455-3.75-2.677c0-.616 9.416 3.182 20 8.067 12.511 5.775 13.776 6.014 20.681 3.904l5.819-1.778-7.506-.744c-8.475-.84-14.506-3.119-21.768-8.223-9.982-7.016-17.612-9.822-45.581-16.76-7.808-1.937-15.519-7.224-20.03-13.734-7.293-10.522-12.493-53.254-7.748-63.665 1.933-4.242 13.21-15.454 18.07-17.968 3.637-1.88 18.089-4.441 21.445-3.799 2.9.554 8.783-1.737 8.287-3.228-.185-.553-1.423-1.084-2.752-1.181s-4.391-.502-6.804-.9c-4.295-.709-4.336-.751-1.934-2.01 4.087-2.141 14.986-4.159 20.821-3.854 5.741.299 16.399-1.816 18.677-3.707 1.884-1.564 1.636-4.62-.427-5.268-.963-.303-4 .129-6.75.96s-9.05 1.795-14 2.143l-9 .631 3-2.466c1.65-1.356 6.6-4.004 11-5.885 4.4-1.88 9.8-4.611 12-6.068 4.021-2.662 14.861-5.9 19.755-5.9 1.445 0 2.905-.45 3.245-1s1.604-1.01 2.809-1.022c3.57-.036 10.357-3.594 10.914-5.722.495-1.892.388-1.908-2.604-.392-1.978 1.002-6.361 1.677-11.979 1.845-10.118.302-19.038 2.962-24.766 7.386-2.707 2.09-13.523 6.905-15.513 6.905-.17 0 4.507-8.096 8.664-15 .497-.825 1.779-3.412 2.849-5.75 4.33-9.463-5.775-1.443-14.137 11.219-4.535 6.867-10.303 12.531-12.761 12.531-1.082 0 1.408-10.926 3.484-15.286 2.149-4.514 1.65-5.355-2.107-3.554-3.478 1.666-7.97 10.401-9.44 18.353-.904 4.892-1.715 6.334-5.496 9.775-4.968 4.521-15.417 11.135-15.417 9.758 0-.868 4.772-7.474 9.785-13.546 1.363-1.65 3.365-3.34 4.451-3.756 1.21-.465 1.752-1.334 1.4-2.25-.4-1.042.083-1.494 1.595-1.494 1.432 0 1.832-.337 1.179-.99-.915-.915-2.666-.437-12.91 3.52-1.105.426-.209-.844 2-2.837 2.2-1.985 4.331-3.628 4.736-3.651s1.94-1.862 3.413-4.087c1.898-2.869 2.908-3.672 3.471-2.76.472.763.666.071.477-1.705-.329-3.102-2.292-4.205-5.377-3.021-1.297.498-1.376.816-.361 1.444.9.556.029 1.315-2.811 2.451-2.263.906-4.373 2.319-4.688 3.141-.316.822-1.138 1.495-1.828 1.495-1.501 0-1.213-2 2.143-14.875 2.479-9.506 2.745-19.105.59-21.26-1.303-1.303-4.265 5.993-4.265 10.506 0 1.832-.504 4.777-1.121 6.546l-1.121 3.215-1.879-3.09c-1.033-1.7-1.879-3.668-1.879-4.375s-.675-2.158-1.5-3.226c-1.485-1.921-1.515-1.921-3 0-1.932 2.5-1.932 7.956 0 9.559.825.685 1.5 2.85 1.5 4.812s.523 6.1 1.163 9.196c1 4.845.903 6.492-.697 11.835l-1.859 6.206-1.106-4.354c-1.399-5.511-4.957-9.639-6.757-7.839-1.707 1.708-1.325 11.594.658 17.021 1.536 4.206 1.505 4.637-.809 11-2.833 7.791-4.284 10.661-7.364 14.567-2.19 2.776-2.322 2.811-3.672.968-2.625-3.582-2.819-9.898-.559-18.135 1.165-4.25 2.381-10.663 2.7-14.252.732-8.221 1.789-10.268 8.705-16.855 3.079-2.932 5.638-6.194 5.688-7.25s.091-3.27.091-4.92-.041-3.45-.091-4c-.13-1.427-2.091-1.243-2.091.196 0 1.958-5.16 8.804-6.636 8.804-.75 0-1.364.379-1.364.843 0 1.258-6.807 4.683-7.644 3.846-.397-.397-.19-1.255.461-1.906.651-.65 1.183-1.953 1.183-2.895s2.925-6.118 6.5-11.502c6.829-10.285 8.079-14.844 5.163-18.832-1.227-1.679-1.478-1.474-3.073 2.513-1.699 4.246-10.583 18.273-11.189 17.667-1.054-1.053-.964-8.867.143-12.547 1.753-5.824 2.999-18.014 1.705-16.687-.536.55-3.061 4.09-5.612 7.866L135 71.233v10.05c0 9.6-.451 12.058-1.23 6.699-.198-1.365-.903-3.465-1.565-4.666-.663-1.202-1.205-2.789-1.205-3.528s-.787-2.456-1.75-3.815c-.963-1.36-2.266-4.723-2.896-7.473-2.703-11.799-6.215-17.102-6.51-9.833m70.529-1.944c-5.239.646-8.092 5.036-7.529 11.586.086.995.606 1.531 1.156 1.191s1-.141 1 .441c0 2.056 3.54 1.012 6.742-1.989 3.292-3.086 4.709-6.384 4.097-9.54-.388-1.999-1.121-2.225-5.466-1.689m14.93 2.527c-1.743 1.237-3.874 3.728-4.736 5.534-1.795 3.762-2.017 5.612-.567 4.716.55-.34 1-.172 1 .374 0 1.687 3.87 2.324 7.28 1.198 1.787-.589 5.204-3.089 7.594-5.555l4.345-4.483-2.512-.955c-1.382-.526-2.808-1.433-3.169-2.017-1.11-1.796-5.901-1.18-9.235 1.188m42.638 3.617c-6.65 4.244-7.967 5.856-7.993 9.787-.048 7.001.008 7.084 4.436 6.709 5.963-.506 8.691-3.662 8.84-10.231.152-6.653-1.536-8.655-5.283-6.265M108 65.374c0 1.379.45 2.786 1 3.126s1 1.679 1 2.976.563 2.558 1.25 2.804c.688.245.935.785.551 1.199s-2.116.258-3.848-.346c-2.796-.974-3.208-.875-3.668.885C104 77.108 102.946 78 101.942 78c-2.976 0-3.313 1.975-.797 4.669 3.103 3.322 7.099 5.335 10.555 5.316 3.92-.022 5.579-1.339 5.849-4.642.128-1.564.678-4.5 1.221-6.526.799-2.973.654-4.227-.747-6.5-2.181-3.538-4.875-5.883-7.773-6.766-1.918-.584-2.25-.315-2.25 1.823m117.256 2.655c-3.089 1.242-6.357 6.864-6.028 10.37.383 4.083 2.428 5.04 7.723 3.614 7.583-2.042 13.591-10.681 9.505-13.669-2.07-1.513-7.817-1.675-11.2-.315M47.128 74.345c-2.385 2.874-2.352 7.038.085 10.648 2.701 4.003 4.735 4.685 8.866 2.974 3.529-1.462 3.732-3.752.795-8.978-2.875-5.114-7.519-7.327-9.746-4.644M21.75 76.022c-5.71 3.516 4.547 13.889 13.8 13.956 1.677.012 3.514.486 4.08 1.052.683.683 1.848.704 3.45.064 1.331-.532 1.831-.996 1.111-1.031S43.16 89.55 43.5 89s-.245-1-1.299-1c-1.438 0-2.14-1.037-2.809-4.147-.57-2.65-1.858-4.867-3.568-6.14-3.075-2.29-11.465-3.298-14.074-1.691m173.808.884c-.308.498-1.46.671-2.559.383-1.623-.424-1.999-.029-1.999 2.094 0 1.44-.38 2.617-.844 2.617-1.841 0-8.977 8.357-9.54 11.171-.577 2.885.695 6.867 2.169 6.793.393-.02 2.224-3.135 4.069-6.922 2.357-4.838 4.159-7.219 6.06-8.006 2.589-1.073 6.086-5.635 6.086-7.94 0-1.32-2.653-1.467-3.442-.19m8.569 2.755c-1.72 2.014-3.196 4.601-3.279 5.75a293 293 0 0 1-.285 3.589c-.323 3.67 4.58 3.946 9.591.542 3.817-2.594 5.274-7.153 3.671-11.486-1.289-3.484-6.02-2.701-9.698 1.605M251 82.441c-1.925 1.279-3.83 2.131-4.233 1.894-1.187-.699-7.767.806-7.767 1.776 0 1.222 4.735 1.126 5.5-.111.932-1.508 2.791-1.2 2.191.363-.841 2.191 6.368 5.637 11.791 5.637 4.818 0 10.024-2.269 10.991-4.791.299-.778-.842-2.685-2.574-4.303-4.032-3.767-10.639-3.96-15.899-.465m-14.377 6.099c-.882 2.3-.848 2.353 1.409 2.183 1.191-.09 1.915-.754 1.75-1.605-.409-2.105-2.431-2.475-3.159-.578m-5.564 8.386c-2.017 2.546-2.722 4.164-2.007 4.606 1.175.726 3.49-1.377 6.393-5.808 2.927-4.467-.678-3.48-4.386 1.202m-207.595-.161c-2.019 1.432-1.712 8.098.541 11.744 2.279 3.686 4.894 4.86 9.624 4.319 3.825-.437 4.29-3.847 1.26-9.243-3.642-6.488-8.122-9.161-11.425-6.82m237.822 8.916c-3.165.642-8.286 5.741-8.286 8.252 0 1.171-.675 2.389-1.5 2.705s-1.448 1.54-1.384 2.719c.092 1.709.209 1.786.576.381.253-.969.883-1.501 1.4-1.181s.682 1 .365 1.512c-.936 1.516 5.467 1.061 9.058-.643 3.296-1.564 7.551-6.908 8.91-11.189.556-1.754.317-2.24-1.108-2.251-.999-.007-2.717-.18-3.817-.384s-2.996-.168-4.214.079M39 108.167c0 1.008.337 1.866.75 1.907s1.74.26 2.95.486c2.84.532 3.959-1.216 1.315-2.055-1.108-.352-2.015-.984-2.015-1.406s-.675-.766-1.5-.766-1.5.825-1.5 1.834m201.507 3.578c-2.746.211-5.671.962-6.5 1.668s-2.3 1.564-3.27 1.909c-1.668.591-1.67.733-.046 2.63.945 1.103 1.963 1.655 2.263 1.226s2.44-.768 4.754-.752c3.297.022 4.859-.595 7.215-2.852 2.622-2.512 3.319-4.929 1.268-4.394-.38.099-2.938.354-5.684.565m-162.214 4.919c-.074 2.577 1.122 5.866 4.011 11.03 7.717 13.8 12.358 17.426 22.946 17.931 3.162.151 5.75.1 5.75-.112s-3.037-2.291-6.75-4.619C97.772 136.832 89 127.523 89 124.71c0-.72-.489-1.799-1.087-2.397-1.62-1.62.613-2.626 2.796-1.261.985.616 3.124 2.894 4.754 5.063 1.816 2.415 5.267 5.093 8.91 6.914 3.271 1.634 6.1 2.971 6.287 2.971 1.407 0-.456-2.879-4.91-7.591-3.869-4.092-7.618-6.704-14.25-9.926-12.851-6.244-13.081-6.275-13.207-1.819m-61.043 2.984c-5.331 2.628-3.961 7.891 2.649 10.177 5.301 1.832 10.775 1.291 13.936-1.379 1.163-.982-3.501-7.534-6.313-8.869-4.152-1.97-6.161-1.956-10.272.071m236.89 7.499c-4.015 1.156-3.519 2.006 1.431 2.45 1.998.179 5.188 1.243 7.088 2.364 2.08 1.227 5.224 2.039 7.898 2.039 3.812 0 4.443-.291 4.443-2.049 0-4.442-12.286-7.271-20.86-4.804m-35.819 7.179c-1.748.646-4.237 2.412-5.532 3.924s-2.991 2.75-3.771 2.75c-1.103 0-1.151.267-.218 1.2.66.66 1.2 2.004 1.2 2.987 0 1.978 5.827 4.888 10.061 5.024 6.498.209 11.196-7.093 8.81-13.692-1.089-3.01-1.714-3.508-4.322-3.443-1.677.042-4.479.604-6.228 1.25m25.072-.348c-1.159.469-3.49 2.529-5.18 4.579-2.902 3.522-2.986 3.859-1.52 6.097 3.111 4.748 11.089 4.291 15.976-.914 3.939-4.196 4.514-6.034 2.699-8.625-1.124-1.604-2.494-2.1-5.675-2.052-2.306.035-5.141.447-6.3.915m-231.13 1.148c-2.03.58-3.809 2.029-4.767 3.882-1.42 2.745-1.389 3.099.431 4.919 2.723 2.723 8.343 3.555 14.583 2.158 6.294-1.408 6.437-3.185.633-7.85-4.555-3.661-6.752-4.288-10.88-3.109m6.613 18.624c-1.374 1.512-3.008 3.953-3.631 5.424-1.489 3.514.221 4.973 6.538 5.578 4.148.398 5.362.018 10.067-3.15 2.943-1.981 5.643-3.612 6-3.624.84-.029 5.81-3.906 5.15-4.018-.275-.046-2.501-.313-4.946-.592s-5.228-.926-6.184-1.438-3.709-.93-6.117-.93c-3.505 0-4.878.549-6.877 2.75m161.374-.535c-4.086 1.351-4.15 2.655-.169 3.451 2.154.431 2.68.863 1.75 1.439-.779.481-1.331 2.633-1.331 5.186 0 5.474 4.03 11.148 9.728 13.7 5.218 2.336 7.511 1.616 8.713-2.739 1.289-4.67-.763-9.719-5.658-13.924l-3.693-3.172 4.955.515c4.517.469 10.455 2.929 10.455 4.331 0 .314 1.688 2.419 3.75 4.678 3.971 4.35 8.147 6.278 12.229 5.646 3.605-.558 4.353-1.744 3.607-5.722-1.012-5.393-4.943-9.369-10.923-11.049-8.987-2.526-28.679-3.904-33.413-2.34m49.563-.254c-1.477.457-2.929.589-3.226.292-.297-.296-.819.189-1.161 1.078-.341.89.054 2.292.879 3.117.824.824 2.451 3.039 3.615 4.922 2.824 4.569 6.182 6.618 11.975 7.304 5.736.679 10.105-1.557 10.105-5.173 0-2.194-5.604-8.17-9.662-10.302-2.849-1.498-9.549-2.161-12.525-1.238m-139.431 7.953c-9.395 2.349-16.072 13.773-9.962 17.043 5.941 3.18 15.273-2.506 18.105-11.031.923-2.78 1.488-5.247 1.254-5.48-.95-.95-6.476-1.263-9.397-.532m-42.017 4.588c-2.274.717-5.082 1.811-6.239 2.431-4.851 2.596-6.926 12.462-3.121 14.838 4.566 2.852 12.166-3.616 15.383-13.092.886-2.612 1.612-4.958 1.612-5.214 0-.782-3.284-.336-7.635 1.037m15.801 2.812c-4.138 2.728-6.085 6.13-6.131 10.713-.051 5.121 2.402 8.159 6.279 7.779 5.89-.577 9.903-10.493 6.218-15.365-.808-1.067-1.483-2.728-1.5-3.691-.041-2.226-.761-2.143-4.866.564M451 211.62c-10.354 8.094-13.388 12.385-8.75 12.376 3.687-.007 16.75-9.546 16.75-12.231 0-1.377-1.932-3.809-2.95-3.714-.302.029-2.575 1.635-5.05 3.569m137.399-.709c-6.954 5.189-12.916 10.869-12.191 11.613 1.713 1.756 6.107.405 11.969-3.679 6.434-4.483 8.153-7.497 5.52-9.682-1.102-.914-2.229-.542-5.298 1.748m-221.35 16.257c-13.133 1.876-24.192 9.583-29.758 20.738-2.486 4.982-2.785 6.633-2.732 15.094.051 8.12.441 10.299 2.687 15 4.659 9.75 13.059 16.82 23.895 20.111 6.013 1.827 8.673 2.057 18.685 1.618 11.301-.496 16.006-1.632 22.924-5.531 2.195-1.237 2.25-1.682 2.25-18.233V259h-13.893c-11.556 0-13.992.258-14.481 1.532-.653 1.701 2.853 3.468 6.882 3.468 4.364 0 5.209 2.817 4.718 15.739-.245 6.468-.66 11.986-.922 12.261s-3.925.484-8.14.465c-6.317-.029-8.566-.504-12.796-2.707-9.617-5.007-14.376-14.682-14.358-29.19.015-12.553 4.914-21.066 14.49-25.18 5.682-2.442 15.831-2.249 21.525.407 6.192 2.889 7.316 3.971 10.353 9.963 4.491 8.863 5.92 6.636 4.977-7.756l-.645-9.835-5.105-.003c-2.808-.001-8.255-.48-12.105-1.063-7.983-1.21-9.546-1.205-18.451.067M774 227.119c-3.025.487-8.777 2.492-12.783 4.454a35.117 35.117 0 0 0-15.103 49.107c8.354 14.657 24.296 21.714 43.579 19.292 13.489-1.693 24.315-9.178 29.989-20.733 2.52-5.133 2.818-6.795 2.818-15.739 0-12.055-1.821-16.604-9.806-24.495-6.65-6.573-14.787-10.738-23.416-11.985-7.673-1.11-7.772-1.109-15.278.099m84.594-.062c-11.671 1.955-23.764 10.812-28.473 20.854-2.308 4.922-2.62 6.842-2.616 16.089.004 8.968.334 11.116 2.256 14.722 4.775 8.955 12.28 15.329 22.527 19.131 10.582 3.926 31.076 2.574 41.485-2.737l4.274-2.181-.274-17.086-.273-17.085-12.416.172c-11.66.161-16.084.983-16.084 2.988 0 .469 1.688 1.162 3.75 1.539 7.902 1.444 8.25 2.101 8.25 15.591 0 13.91.318 13.488-10.066 13.374-18.593-.203-29.57-15.955-26.044-37.371 2.241-13.607 10.972-21.364 24.016-21.338 10.871.022 18.397 4.44 22.297 13.09 3.05 6.764 4.26 4.915 4.579-6.997l.283-10.526-5.283-.614c-2.905-.338-8.207-1.068-11.782-1.623-7.482-1.161-13.439-1.159-20.406.008m-444.162 1.054c-.379.612.604 2.14 2.191 3.406l2.877 2.296v58.332l-3.5 2.915c-2.916 2.429-3.25 3.083-2 3.921.94.63 12.129.915 29.992.762l28.492-.243 1.183-8c1.582-10.701 1.613-13.76.131-13.266-.66.22-2.052 1.945-3.092 3.833-5.061 9.19-9.546 11.157-24.448 10.719l-9.758-.286-.279-13.25-.279-13.25h10.074c9.363 0 10.248.173 12.529 2.455 1.35 1.35 2.455 2.925 2.455 3.5s.675 1.045 1.5 1.045c1.232 0 1.497-1.743 1.485-9.75-.015-9.348-1.332-14.793-2.725-11.26-.323.82-1.829 2.733-3.347 4.25-2.628 2.629-3.214 2.76-12.336 2.76H436v-25h8.36c16.749 0 21.441 1.985 24.223 10.247.603 1.789 1.73 3.253 2.506 3.253 1.072 0 1.482-1.92 1.708-7.997.163-4.398.042-9.01-.27-10.25l-.565-2.253H443.54c-19.759 0-28.631.339-29.108 1.111m64.568-.13c-1.243.787-.931 1.428 1.815 3.735l3.315 2.784-.315 29.346-.315 29.346-2.877 2.293c-4.278 3.409-2.631 4.517 6.686 4.5 10.673-.02 12.084-.882 7.878-4.811L492 292.198v-24.299c0-13.365.37-23.871.822-23.349s4.825 5.9 9.717 11.95c10.118 12.511 32.353 39.399 34.064 41.192.626.655 2.434 1.33 4.017 1.5l2.88.308.264-32.688.263-32.688 2.487-1.956c1.367-1.076 2.486-2.702 2.486-3.614 0-1.425-1.151-1.63-8.199-1.46-9.077.218-11.801.691-11.801 2.047 0 .5 1.133 1.339 2.518 1.866 3.959 1.505 4.548 4.834 4.254 24.055l-.272 17.815-8-9.615a3732 3732 0 0 1-17.86-21.689c-5.423-6.64-10.571-12.635-11.441-13.323-1.877-1.484-16.949-1.695-19.199-.269m79.25-.283c-2.826.554-2.81.848.25 4.484l2.5 2.971v57.001l-2.862 2.861c-2.018 2.019-2.548 3.175-1.8 3.923.699.699 10.729 1.062 29.343 1.062h28.281l.495-2.25c.887-4.024 2.146-17.441 1.749-18.632-.391-1.172-4.202 2.936-4.211 4.54-.011 2.051-6.391 7.372-10.006 8.345-2.185.588-8.364.941-13.731.783l-9.758-.286-.279-13.25-.279-13.25h9.529c10.151 0 10.882.3 14.67 6.022.902 1.363 1.895 2.235 2.207 1.938.827-.789 1.005-21.94.191-22.754-.379-.379-1.066-.018-1.526.802-.461.821-1.802 2.602-2.981 3.959-1.955 2.25-3.015 2.502-12.087 2.866l-9.945.4v-11.617c0-6.389.112-11.954.25-12.366s5.2-.736 11.25-.719c13.331.037 16.453 1.412 19.808 8.721 1.2 2.613 2.634 4.599 3.187 4.413.583-.197 1.005-4.501 1.005-10.252V227.5l-26.5-.122c-14.575-.067-27.513.077-28.75.32m92.939.164c-1.346.854-9.91 20.405-21.267 48.553-4.073 10.094-7.452 16.948-9.238 18.739-1.549 1.553-2.535 3.279-2.191 3.835s4.423 1.011 9.066 1.011c6.746 0 8.441-.294 8.441-1.465 0-.805-.9-1.946-2-2.535-2.485-1.33-2.566-5.123-.22-10.344l1.727-3.843 13.318-.157 13.319-.156 1.43 3.015c2.968 6.255 3.511 9.733 1.812 11.611-.87.961-1.297 2.209-.949 2.772.686 1.11 72.148 1.582 74.981.495 1.245-.478 1.582-2.181 1.582-8 0-8.534-1.436-9.66-4.988-3.913-2.724 4.407-7.174 5.701-18.269 5.31l-8.243-.29-.266-28.287c-.176-18.781.096-28.962.811-30.297.592-1.107 2.174-2.429 3.516-2.939 3.334-1.268 3.061-2.603-.686-3.352-5.394-1.079-24.697-.722-25.434.471-.373.602.726 2.377 2.441 3.943l3.118 2.848v29.057c0 28.016-.074 29.13-2.062 31.119-1.135 1.134-2.597 1.909-3.25 1.722-1.715-.491-8.326-14.165-17.219-35.613-14.496-34.96-15.082-35.972-19.28-33.31m255.754.217c-1.205.782-1.092 1.223.69 2.678 4.152 3.393 4.367 5.056 4.367 33.776v27.665l-2.948 2.753c-4.528 4.231-2.65 5.049 11.589 5.049 13.363 0 15.194-.744 11.123-4.518l-2.485-2.304-.484-27.676c-.267-15.221-.276-28.767-.021-30.102.256-1.335 1.765-3.196 3.355-4.135s2.735-2.17 2.546-2.736c-.441-1.32-25.758-1.73-27.732-.45m35.057-.046c-1.269.848-1.076 1.378 1.25 3.437l2.75 2.434v58.747L943.5 295c-5.282 4.962-4.789 5.052 26.218 4.765l28.719-.265 1.205-7.5c1.518-9.44 1.623-13 .384-13-.536 0-1.629 1.265-2.428 2.811-4.379 8.468-11.785 11.593-26.098 11.013l-8-.324-.279-13.25-.279-13.25h8.629c8.528 0 8.67.041 12.129 3.5 1.925 1.925 3.905 3.5 4.4 3.5 1.409 0 1.129-20.74-.291-21.618-.655-.405-1.378-.176-1.606.508s-1.428 2.422-2.666 3.862c-2.058 2.392-3.042 2.656-11.395 3.056l-9.142.437V234l7.75.044c14.697.082 20.739 2.847 23.322 10.673 2.014 6.103 3.41 3.266 3.713-7.548L998.07 227l-27.285.015c-16.548.01-27.875.41-28.785 1.018m-171 8.086c-8.788 5.301-11.98 12.296-12.09 26.498-.121 15.518 6.116 26.828 16.494 29.91 9.302 2.763 15.655 1.488 21.969-4.41 5.947-5.554 7.958-10.934 8.269-22.117.406-14.597-3.974-24.435-13.237-29.734-5.425-3.103-16.38-3.178-21.405-.147m-127.558 25.024a9256 9256 0 0 0-5.238 12.887c-.162.409 4.468.717 10.29.684 7.349-.042 10.497-.406 10.296-1.19-.832-3.243-9.371-24.492-9.848-24.507-.306-.009-2.781 5.447-5.5 12.126M137.756 255.5c-.349 1.65-.94 4.238-1.312 5.75s-.273 2.75.22 2.75c1.5 0 2.949-5.311 2.319-8.5l-.593-3zM169 253.592c0 .354 2.421 3.853 5.379 7.776 5.44 7.213 9.621 11.616 9.621 10.132 0-.445.787-.129 1.75.703 1.647 1.425 7.523 3.797 9.405 3.797.472 0-.5-1.874-2.159-4.164-4.118-5.685-23.996-20.798-23.996-18.244m1 38.88c0 .776.486 1.711 1.081 2.078.595.368 1.943 2.082 2.996 3.809 1.747 2.864 1.916 2.939 1.919.856.005-2.661-2.478-6.802-4.556-7.6-.834-.32-1.44.041-1.44.857"/></svg>